<svg xmlns="http://www.w3.org/2000/svg" width="50" height="50" viewBox="0 0 50 50">
<path fill="#df4bb1" d="M26.759,25.836c5.261,6.977,11.138,13.465,17.591,19.357c0.949,0.866,2.367-0.544,1.414-1.414 c-6.322-5.773-12.124-12.116-17.279-18.952c-0.325-0.431-0.863-0.654-1.368-0.359C26.693,24.716,26.432,25.402,26.759,25.836 L26.759,25.836z"></path>
<path fill="#399bdf" d="M35.965,8.401c-1.262-1.256-2.71-2.278-4.271-3.059c-0.24-0.175-0.488-0.342-0.752-0.497 c-1.116-0.656-2.299-1.056-3.512-1.265c-0.118-0.085-0.248-0.161-0.406-0.214C19.96,0.996,12.416,4.12,8.09,9.931 c-4.181,5.616-5.573,13.817-2.2,20.15c0.454,0.852,1.011,1.663,1.659,2.389c1.675,2.109,4.064,3.652,6.745,4.16 c2.765,0.524,5.736,0.388,8.534,0.221c2.445-0.145,4.914-0.489,7.192-1.424c5.001-2.053,7.824-7.129,9.373-12.082 C41.081,17.947,40.028,12.446,35.965,8.401z"></path>
<!-- Additional paths omitted for brevity -->
</svg>
